Coordinates
version=1
nRows=58
nColumns=11
inDegrees=yes

Units are S.I. units (second, meters, Newtons, ...)
If the header above contains a line with 'inDegrees', this indicates whether rotational values are in degrees (yes) or radians (no).

endheader
time	pelvis_tilt	pelvis_tx	pelvis_ty	hip_flexion_l	hip_flexion_r	knee_angle_l	knee_angle_r	ankle_angle_l	ankle_angle_r	lumbar
     44.03000000	    -22.47905928	      0.11244237	      0.76973295	     78.79521157	     78.79521157	    -68.66366514	    -68.66366514	     12.64626773	     12.64626773	    -39.42625596
     44.04000000	    -22.70253790	      0.11477164	      0.77299898	     78.41821839	     78.41821839	    -68.04106041	    -68.04106041	     12.68279357	     12.68279357	    -38.86069020
     44.05000000	    -22.90283394	      0.11707143	      0.77636544	     77.99945795	     77.99945795	    -67.38757871	    -67.38757871	     12.70234357	     12.70234357	    -38.31040462
     44.06000000	    -23.07995264	      0.11928481	      0.77983501	     77.55264381	     77.55264381	    -66.70915767	    -66.70915767	     12.70393670	     12.70393670	    -37.78128014
     44.07000000	    -23.24399923	      0.12142970	      0.78332945	     77.09149829	     77.09149829	    -66.01465178	    -66.01465178	     12.69670909	     12.69670909	    -37.24467424
     44.08000000	    -23.38220640	      0.12350213	      0.78693624	     76.59960105	     76.59960105	    -65.30557861	    -65.30557861	     12.66468333	     12.66468333	    -36.75600354
     44.09000000	    -23.48630433	      0.12554383	      0.79059053	     76.06954170	     76.06954170	    -64.57902623	    -64.57902623	     12.60883554	     12.60883554	    -36.28177139
     44.10000000	    -23.57466547	      0.12753359	      0.79428965	     75.51951298	     75.51951298	    -63.83448808	    -63.83448808	     12.53817156	     12.53817156	    -35.81967655
     44.11000000	    -23.41390483	      0.12967004	      0.79860016	     74.67371968	     74.67371968	    -63.04314145	    -63.04314145	     12.20409059	     12.20409059	    -35.67459401
     44.12000000	    -23.58740299	      0.13149611	      0.80204769	     74.22950178	     74.22950178	    -62.29870618	    -62.29870618	     12.20360898	     12.20360898	    -35.07959170
     44.13000000	    -23.52394942	      0.13349016	      0.80607644	     73.49905859	     73.49905859	    -61.49750401	    -61.49750401	     11.94967900	     11.94967900	    -34.78714767
     44.14000000	    -23.69661909	      0.13527215	      0.80948150	     73.05458009	     73.05458009	    -60.73822768	    -60.73822768	     11.95241235	     11.95241235	    -34.17472788
     44.15000000	    -23.62788675	      0.13724016	      0.81346128	     72.32012794	     72.32012794	    -59.92718476	    -59.92718476	     11.68247891	     11.68247891	    -33.87142027
     44.16000000	    -23.79642725	      0.13901090	      0.81680885	     71.87437793	     71.87437793	    -59.16238676	    -59.16238676	     11.68258077	     11.68258077	    -33.24630245
     44.17000000	    -23.91322847	      0.14082696	      0.82024920	     71.36587567	     71.36587567	    -58.37892814	    -58.37892814	     11.63659769	     11.63659769	    -32.67306233
     44.18000000	    -23.75617575	      0.14285076	      0.82432125	     70.54392867	     70.54392867	    -57.57064809	    -57.57064809	     11.27459054	     11.27459054	    -32.46689109
     44.19000000	    -23.78054860	      0.14470408	      0.82788580	     69.94776885	     69.94776885	    -56.79321097	    -56.79321097	     11.09331892	     11.09331892	    -32.00227507
     44.20000000	    -23.92654039	      0.14648771	      0.83109500	     69.49745481	     69.49745481	    -56.04861796	    -56.04861796	     11.09033199	     11.09033199	    -31.36704522
     44.21000000	    -23.80527047	      0.14846254	      0.83491785	     68.73555675	     68.73555675	    -55.25785079	    -55.25785079	     10.80664092	     10.80664092	    -31.07387266
     44.22000000	    -23.92739659	      0.15021791	      0.83808800	     68.26861761	     68.26861761	    -54.51189283	    -54.51189283	     10.78887528	     10.78887528	    -30.44904045
     44.23000000	    -23.77422114	      0.15219156	      0.84188421	     67.47519735	     67.47519735	    -53.71570048	    -53.71570048	     10.47837677	     10.47837677	    -30.18134414
     44.24000000	    -23.89934225	      0.15394467	      0.84493221	     67.01758065	     67.01758065	    -52.97439548	    -52.97439548	     10.47302594	     10.47302594	    -29.53207831
     44.25000000	    -23.91373947	      0.15573904	      0.84821444	     66.43150773	     66.43150773	    -52.20579147	    -52.20579147	     10.37003260	     10.37003260	    -29.02705834
     44.26000000	    -23.66191501	      0.15774931	      0.85211406	     65.52137971	     65.52137971	    -51.38189507	    -51.38189507	      9.96443979	      9.96443979	    -28.86449409
     44.27000000	    -23.76188702	      0.15950163	      0.85506295	     65.04631988	     65.04631988	    -50.64414023	    -50.64414023	      9.94457681	      9.94457681	    -28.22105607
     44.28000000	    -23.79104997	      0.16128477	      0.85815202	     64.48708824	     64.48708824	    -49.88595294	    -49.88595294	      9.86521435	      9.86521435	    -27.66615608
     44.29000000	    -23.74094470	      0.16314943	      0.86140281	     63.82932318	     63.82932318	    -49.10265283	    -49.10265283	      9.71604325	      9.71604325	    -27.20539148
     44.30000000	    -23.62404426	      0.16509494	      0.86471964	     63.11155275	     63.11155275	    -48.35119017	    -48.35119017	      9.51745142	      9.51745142	    -26.81396046
     44.31000000	    -23.30395220	      0.16721859	      0.86848736	     62.15484419	     62.15484419	    -47.57003161	    -47.57003161	      9.11462352	      9.11462352	    -26.67770314
     44.32000000	    -23.36152697	      0.16906006	      0.87128542	     61.65486439	     61.65486439	    -46.86249682	    -46.86249682	      9.09992538	      9.09992538	    -26.02529348
     44.33000000	    -23.06732968	      0.17120788	      0.87491163	     60.72367549	     60.72367549	    -46.07771954	    -46.07771954	      8.80987677	      8.80987677	    -25.82745167
     44.34000000	    -23.08773842	      0.17313523	      0.87773333	     60.17464120	     60.17464120	    -45.35802677	    -45.35802677	      8.78416341	      8.78416341	    -25.19552436
     44.35000000	    -22.81959192	      0.17530685	      0.88122616	     59.27868224	     59.27868224	    -44.59340980	    -44.59340980	      8.55543934	      8.55543934	    -24.94906821
     44.36000000	    -22.83928448	      0.17728567	      0.88400168	     58.72129466	     58.72129466	    -43.86560726	    -43.86560726	      8.53932816	      8.53932816	    -24.30181717
     44.37000000	    -22.76307855	      0.17937791	      0.88698427	     58.04365881	     58.04365881	    -43.11264759	    -43.11264759	      8.47419371	      8.47419371	    -23.77418480
     44.38000000	    -22.38046663	      0.18173572	      0.89060355	     57.01696018	     57.01696018	    -42.34896220	    -42.34896220	      8.24131024	      8.24131024	    -23.62367994
     44.39000000	    -22.21219190	      0.18399974	      0.89370612	     56.23364158	     56.23364158	    -41.61154892	    -41.61154892	      8.16192421	      8.16192421	    -23.18379079
     44.40000000	    -22.02880657	      0.18631385	      0.89680410	     55.43617008	     55.43617008	    -40.87275467	    -40.87275467	      8.10135294	      8.10135294	    -22.75231422
     44.41000000	    -21.83050025	      0.18869511	      0.89989411	     54.62095364	     54.62095364	    -40.14109785	    -40.14109785	      8.05459784	      8.05459784	    -22.32672596
     44.42000000	    -21.61668491	      0.19114016	      0.90297826	     53.78511101	     53.78511101	    -39.40878996	    -39.40878996	      8.02042795	      8.02042795	    -21.90789664
     44.43000000	    -21.40316506	      0.19362730	      0.90600661	     52.95085087	     52.95085087	    -38.68502538	    -38.68502538	      7.99991957	      7.99991957	    -21.48160905
     44.44000000	    -21.14685466	      0.19620661	      0.90907886	     52.06411720	     52.06411720	    -37.96009201	    -37.96009201	      7.98196879	      7.98196879	    -21.08929096
     44.45000000	    -20.88827212	      0.19883590	      0.91210867	     51.17325731	     51.17325731	    -37.23453610	    -37.23453610	      7.97198010	      7.97198010	    -20.69238787
     44.46000000	    -20.61533160	      0.20151744	      0.91512941	     50.26546213	     50.26546213	    -36.51097963	    -36.51097963	      7.96656564	      7.96656564	    -20.31066182
     44.47000000	    -20.56564656	      0.20408944	      0.91754313	     49.63572539	     49.63572539	    -35.83908293	    -35.83908293	      8.00479169	      8.00479169	    -19.61685881
     44.48000000	    -20.02468429	      0.20703122	      0.92104208	     48.40826241	     48.40826241	    -35.07814015	    -35.07814015	      7.95216185	      7.95216185	    -19.56882569
     44.49000000	    -19.71919657	      0.20982679	      0.92392243	     47.47641040	     47.47641040	    -34.37435774	    -34.37435774	      7.94067905	      7.94067905	    -19.20566641
     44.50000000	    -19.41549002	      0.21264492	      0.92672877	     46.55152998	     46.55152998	    -33.67832302	    -33.67832302	      7.92400992	      7.92400992	    -18.83796804
     44.51000000	    -19.10644745	      0.21547928	      0.92946916	     45.62905186	     45.62905186	    -32.99542288	    -32.99542288	      7.89907365	      7.89907365	    -18.47689139
     44.52000000	    -18.79038768	      0.21832861	      0.93213091	     44.70819527	     44.70819527	    -32.32488213	    -32.32488213	      7.86381914	      7.86381914	    -18.12275649
     44.53000000	    -18.47064907	      0.22118594	      0.93473448	     43.79136089	     43.79136089	    -31.66511087	    -31.66511087	      7.81581754	      7.81581754	    -17.77501030
     44.54000000	    -18.16622212	      0.22405286	      0.93723500	     42.89609163	     42.89609163	    -31.01531849	    -31.01531849	      7.75731232	      7.75731232	    -17.41544380
     44.55000000	    -17.84540545	      0.22692324	      0.93967775	     41.99540944	     41.99540944	    -30.37899294	    -30.37899294	      7.68147718	      7.68147718	    -17.07697236
     44.56000000	    -17.79622017	      0.22960624	      0.94142575	     41.44738673	     41.44738673	    -29.83594826	    -29.83594826	      7.69132356	      7.69132356	    -16.39687770
     44.57000000	    -17.20270534	      0.23266009	      0.94429627	     40.22292822	     40.22292822	    -29.14360238	    -29.14360238	      7.49011328	      7.49011328	    -16.41055868
     44.58000000	    -16.87701834	      0.23551732	      0.94648943	     39.34871816	     39.34871816	    -28.54613252	    -28.54613252	      7.37578692	      7.37578692	    -16.09098874
     44.59000000	    -16.54831366	      0.23835600	      0.94861066	     38.48527857	     38.48527857	    -27.96537510	    -27.96537510	      7.25494439	      7.25494439	    -15.78234401
     44.60000000	    -16.21946263	      0.24117872	      0.95065005	     37.63160028	     37.63160028	    -27.39849837	    -27.39849837	      7.13828308	      7.13828308	    -15.47842509
